# xmcd
#
# Track frame offsets:
#       150
#       12657
#       24577
#       37212
#       50440
#       63987
#       76460
#       86795
#       99087
#       110730
#       119965
#       129375
#       138665
#       148760
#       159872
#       170845
#       182622
#
# Disc length: 2584 seconds
#
# Revision: 2
# Processed by: cddbd v1.5.2PL0 Copyright (c) Steve Scherf et al.
# Submitted via: FreeDbEdit v0.1
#
DISCID=f80a1611
DTITLE=Flatt and Scruggs - The Essential Flatt and Scruggs [CD1]
DYEAR=1900
DGENRE=
TTITLE0=Come Back Darling
TTITLE1=I'm Head Over Heels in Love
TTITLE2=I'm Workin' on a Road (To Glory Land)
TTITLE3='Tis Sweet to Be Remembered
TTITLE4=Earl's Breakdown
TTITLE5=Flint Hill Special
TTITLE6=Foggy Mountain Chimes
TTITLE7=That Old Book of Mine
TTITLE8=Til the End of the World Rolls Around
TTITLE9=Foggy Mountain Special
TTITLE10=Randy Lynn Rag
TTITLE11=Shuckin' the Corn
TTITLE12=Don't Let Your Deal Go Down
TTITLE13=I'll Never Shed Another Tear
TTITLE14=Big Black Train
TTITLE15=Crying My Heart Out Over You
TTITLE16=Cabin in the Hills
EXTD=
EXTT0=
EXTT1=
EXTT2=
EXTT3=
EXTT4=
EXTT5=
EXTT6=
EXTT7=
EXTT8=
EXTT9=
EXTT10=
EXTT11=
EXTT12=
EXTT13=
EXTT14=
EXTT15=
EXTT16=
PLAYORDER=
